<svg viewBox="0 0 18 17" fill="none" xmlns="http://www.w3.org/2000/svg">
  <path d="M3.658 15.89c.344.263.77.175 1.267-.184l3.809-2.797 3.809 2.797c.498.36.93.447 1.274.184.337-.257.41-.681.212-1.26l-1.501-4.475 3.845-2.761c.49-.352.703-.74.564-1.15-.14-.403-.527-.6-1.135-.594l-4.717.03-1.436-4.497C9.466.597 9.166.282 8.734.282c-.425 0-.725.315-.916.9L6.383 5.68l-4.717-.03c-.608-.007-.989.19-1.128.594-.14.41.066.798.564 1.15l3.845 2.76-1.509 4.476c-.197.579-.124 1.003.22 1.26Zm1.282-1.766c-.007-.014-.007-.022 0-.058l1.392-3.933c.124-.36.08-.586-.25-.806L2.64 6.97c-.03-.015-.044-.03-.036-.052.014-.014.029-.021.065-.021l4.168.095c.38.014.571-.11.681-.476l1.18-4c.007-.043.021-.05.036-.05.022 0 .03.007.044.05l1.172 4c.11.366.307.49.68.476l4.168-.095c.044 0 .059.007.066.021.008.022 0 .03-.036.052l-3.435 2.358c-.337.227-.381.447-.257.806l1.392 3.933c.014.036.014.044 0 .058-.015.022-.03.008-.059-.007l-3.303-2.549c-.3-.234-.564-.234-.857 0l-3.303 2.55c-.03.014-.051.028-.066.006Z"></path>
</svg>