<svg height="800" width="800" xmlns="http://www.w3.org/2000/svg" viewBox="0 0 511 511" xml:space="preserve"><path d="M487.5 32C474.542 32 464 42.542 464 55.5v52.386a254.878 254.878 0 0 0-35.401-40.394 7.5 7.5 0 0 0-10.177 11.019c18.495 17.081 34.153 36.921 46.539 58.971a7.5 7.5 0 0 0 14.04-3.673V55.5c0-4.687 3.813-8.5 8.5-8.5s8.5 3.813 8.5 8.5v112c0 4.687-3.813 8.5-8.5 8.5h-112c-4.687 0-8.5-3.813-8.5-8.5s3.813-8.5 8.5-8.5h69.229a7.499 7.499 0 0 0 6.577-11.105C412.118 76.408 337.09 32 255.5 32 132.262 32 32 132.262 32 255.5c0 51.074 17.749 101.048 49.976 140.716a7.484 7.484 0 0 0 5.825 2.771 7.5 7.5 0 0 0 5.817-12.229C63.556 349.755 47 303.14 47 255.5 47 140.533 140.533 47 255.5 47c71.79 0 138.135 36.857 176.111 97H375.5c-12.958 0-23.5 10.542-23.5 23.5s10.542 23.5 23.5 23.5h112c12.958 0 23.5-10.542 23.5-23.5v-112c0-12.958-10.542-23.5-23.5-23.5z"/><path d="M327.828 459.124a23.33 23.33 0 0 0-17.838-2.31C292.338 461.583 274.005 464 255.5 464c-51.339 0-100.707-18.905-139.008-53.233a7.5 7.5 0 0 0-10.012 11.17C147.538 458.734 200.46 479 255.5 479c19.826 0 39.475-2.592 58.404-7.706a8.444 8.444 0 0 1 6.449.834 8.44 8.44 0 0 1 3.969 5.155c1.222 4.524-1.464 9.198-5.988 10.42C297.957 493.209 276.816 496 255.5 496 122.888 496 15 388.112 15 255.5S122.888 15 255.5 15c50.528 0 98.817 15.414 139.647 44.576a7.5 7.5 0 0 0 10.462-1.744 7.499 7.499 0 0 0-1.744-10.462C360.476 16.38 309.172 0 255.5 0 114.617 0 0 114.617 0 255.5S114.617 511 255.5 511c22.637 0 45.093-2.965 66.745-8.814a23.344 23.344 0 0 0 14.247-10.977 23.344 23.344 0 0 0 2.312-17.833 23.34 23.34 0 0 0-10.976-14.252z"/></svg>